<svg width="11" height="14" viewBox="0 0 11 14" fill="none" xmlns="http://www.w3.org/2000/svg">
<path d="M5.5 0C5.68234 0 5.8572 0.070259 5.98614 0.195321C6.11507 0.320383 6.1875 0.490003 6.1875 0.666867V7.72632L7.76394 6.1972C7.8936 6.07572 8.06727 6.0085 8.24753 6.01002C8.42779 6.01154 8.60022 6.08168 8.72769 6.20532C8.85516 6.32896 8.92746 6.49622 8.92903 6.67107C8.93059 6.84592 8.8613 7.01437 8.73606 7.14015L5.98606 9.80762C5.85714 9.93263 5.6823 10.0029 5.5 10.0029C5.3177 10.0029 5.14286 9.93263 5.01394 9.80762L2.26394 7.14015C2.19827 7.07863 2.1459 7.00504 2.10987 6.92368C2.07384 6.84232 2.05487 6.75482 2.05408 6.66627C2.05328 6.57772 2.07068 6.48991 2.10525 6.40796C2.13982 6.326 2.19086 6.25154 2.25542 6.18893C2.31997 6.12632 2.39673 6.0768 2.48122 6.04327C2.56571 6.00974 2.65624 5.99287 2.74753 5.99363C2.83881 5.9944 2.92903 6.0128 3.0129 6.04775C3.09678 6.0827 3.17264 6.1335 3.23606 6.1972L4.8125 7.72632V0.666867C4.8125 0.490003 4.88493 0.320383 5.01386 0.195321C5.1428 0.070259 5.31766 0 5.5 0ZM0.6875 10.003C0.869836 10.003 1.0447 10.0733 1.17364 10.1983C1.30257 10.3234 1.375 10.493 1.375 10.6699V12.0036H9.625V10.6699C9.625 10.493 9.69743 10.3234 9.82636 10.1983C9.95529 10.0733 10.1302 10.003 10.3125 10.003C10.4948 10.003 10.6697 10.0733 10.7986 10.1983C10.9276 10.3234 11 10.493 11 10.6699V12.0036C11 12.3573 10.8551 12.6966 10.5973 12.9467C10.3394 13.1968 9.98967 13.3373 9.625 13.3373H1.375C1.01033 13.3373 0.660591 13.1968 0.402728 12.9467C0.144866 12.6966 0 12.3573 0 12.0036V10.6699C0 10.493 0.072433 10.3234 0.201364 10.1983C0.330295 10.0733 0.505164 10.003 0.6875 10.003Z" fill="#252525"/>
</svg>
